<svg xmlns="http://www.w3.org/2000/svg" xmlns:xlink="http://www.w3.org/1999/xlink" viewBox="0 0 191.96 169.59"><defs><style>.cls-1{isolation:isolate;}.cls-2{fill:url(#linear-gradient);}.cls-3{fill:url(#linear-gradient-2);}.cls-4{fill:url(#linear-gradient-3);}.cls-5,.cls-7{mix-blend-mode:screen;}.cls-6,.cls-7{fill:url(#linear-gradient-7);}</style><linearGradient id="linear-gradient" x1="25.63" y1="84.29" x2="80.79" y2="84.29" gradientUnits="userSpaceOnUse"><stop offset="0" stop-color="#2b0b9b"/><stop offset="1" stop-color="#4ccaf5"/></linearGradient><linearGradient id="linear-gradient-2" x1="522.21" y1="570.08" x2="610.36" y2="570.08" xlink:href="#linear-gradient"/><linearGradient id="linear-gradient-3" x1="444.02" y1="463.99" x2="635.98" y2="463.99" xlink:href="#linear-gradient"/><linearGradient id="linear-gradient-7" x1="450.64" y1="539.59" x2="629.36" y2="539.59" xlink:href="#linear-gradient"/></defs><g class="cls-1"><g id="Layer_1" data-name="Layer 1"><polygon class="cls-2" points="80.79 60.16 53.5 108.43 25.63 60.16 80.79 60.16"/><path class="cls-3" d="M573.72,515.36h36.64L550.78,618.58a12.45,12.45,0,0,1-21.56,0l-7-12.11Z" transform="translate(-444.02 -455.2)"/><path class="cls-4" d="M634.86,472.78H445.14a12.44,12.44,0,0,1,11.32-17.58H623.54a12.44,12.44,0,0,1,11.32,17.58Z" transform="translate(-444.02 -455.2)"/><g class="cls-5"><path class="cls-2" d="M523.15,516.33l-25.64,45.35-26.19-45.35h51.83m1.66-1H469.64l27.87,48.27,27.3-48.27Z" transform="translate(-444.02 -455.2)"/><path class="cls-3" d="M608.68,516.33,549.94,618.1a11.49,11.49,0,0,1-19.88,0l-6.73-11.64,50.95-90.13h34.4m1.68-1H573.72l-51.51,91.11,7,12.11a12.45,12.45,0,0,0,21.56,0l59.58-103.22Z" transform="translate(-444.02 -455.2)"/><path class="cls-4" d="M623.54,456.17a11.47,11.47,0,0,1,10.68,15.64H445.78a11.47,11.47,0,0,1,10.68-15.64H623.54m0-1H456.46a12.44,12.44,0,0,0-11.32,17.58H634.86a12.44,12.44,0,0,0-11.32-17.58Z" transform="translate(-444.02 -455.2)"/></g><path class="cls-6" d="M450.64,482.46c12.41,21.47,1,1.75,13.41,23.22h77.34l-38.26,67.69c9.31,16.12,6.69,11.59,13.47,23.36l51.46-91.05H616c12.29-21.25,1.23-2.15,13.41-23.22Z" transform="translate(-444.02 -455.2)"/><path class="cls-7" d="M627.69,483.42l-5.83,10.09c-.29.51-.57,1-6.47,11.2H567.5l-.28.5-50.63,89.57-1.68-2.93-7.9-13.7-2.77-4.79,38-67.2.81-1.45H464.61l-6.43-11.12-5.87-10.17H627.69m1.67-1H450.64c12.41,21.47,1,1.75,13.41,23.22h77.34l-38.26,67.69c9.31,16.12,6.69,11.59,13.47,23.36l51.46-91.05H616c12.29-21.25,1.23-2.15,13.41-23.22Z" transform="translate(-444.02 -455.2)"/></g></g></svg>