<svg xmlns="http://www.w3.org/2000/svg" xmlns:xlink="http://www.w3.org/1999/xlink" viewBox="0 0 396.34 119.01"><defs><style>.cls-1{isolation:isolate;}.cls-2{fill:url(#linear-gradient);}.cls-3{fill:url(#linear-gradient-2);}.cls-4{fill:url(#linear-gradient-3);}.cls-5,.cls-7{mix-blend-mode:screen;}.cls-6,.cls-7{fill:url(#linear-gradient-7);}.cls-8{fill:url(#linear-gradient-9);}.cls-9{fill:url(#linear-gradient-10);}.cls-10{fill:url(#linear-gradient-11);}.cls-11{fill:url(#linear-gradient-12);}.cls-12{fill:url(#linear-gradient-13);}.cls-13{fill:url(#linear-gradient-14);}.cls-14{fill:url(#linear-gradient-15);}.cls-15{fill:url(#linear-gradient-16);}.cls-16{fill:url(#linear-gradient-17);}.cls-17{fill:url(#linear-gradient-18);}</style><linearGradient id="linear-gradient" x1="17.98" y1="59.15" x2="56.69" y2="59.15" gradientUnits="userSpaceOnUse"><stop offset="0" stop-color="#2b0b9b"/><stop offset="1" stop-color="#4ccaf5"/></linearGradient><linearGradient id="linear-gradient-2" x1="396.7" y1="561.11" x2="458.56" y2="561.11" xlink:href="#linear-gradient"/><linearGradient id="linear-gradient-3" x1="341.83" y1="486.66" x2="476.54" y2="486.66" xlink:href="#linear-gradient"/><linearGradient id="linear-gradient-7" x1="346.47" y1="539.71" x2="471.9" y2="539.71" xlink:href="#linear-gradient"/><linearGradient id="linear-gradient-9" x1="476.39" y1="540.71" x2="503.22" y2="540.71" xlink:href="#linear-gradient"/><linearGradient id="linear-gradient-10" x1="500.5" y1="545.55" x2="522.82" y2="545.55" xlink:href="#linear-gradient"/><linearGradient id="linear-gradient-11" x1="528.65" y1="539.91" x2="554.64" y2="539.91" xlink:href="#linear-gradient"/><linearGradient id="linear-gradient-12" x1="557.23" y1="540.7" x2="582.65" y2="540.7" xlink:href="#linear-gradient"/><linearGradient id="linear-gradient-13" x1="586.13" y1="545.64" x2="610.52" y2="545.64" xlink:href="#linear-gradient"/><linearGradient id="linear-gradient-14" x1="614.14" y1="545.64" x2="638.53" y2="545.64" xlink:href="#linear-gradient"/><linearGradient id="linear-gradient-15" x1="643.33" y1="545.31" x2="658.84" y2="545.31" xlink:href="#linear-gradient"/><linearGradient id="linear-gradient-16" x1="674.11" y1="540.71" x2="682.2" y2="540.71" xlink:href="#linear-gradient"/><linearGradient id="linear-gradient-17" x1="688.64" y1="545.31" x2="711.76" y2="545.31" xlink:href="#linear-gradient"/><linearGradient id="linear-gradient-18" x1="716.41" y1="545.64" x2="738.17" y2="545.64" xlink:href="#linear-gradient"/></defs><g class="cls-1"><g id="Layer_1" data-name="Layer 1"><polygon class="cls-2" points="56.7 42.22 37.54 76.09 17.98 42.22 56.7 42.22"/><path class="cls-3" d="M432.85,522.71h25.71l-41.81,72.44a8.74,8.74,0,0,1-15.13,0l-4.92-8.51Z" transform="translate(-341.83 -480.49)"/><path class="cls-4" d="M475.75,492.83H342.62a8.73,8.73,0,0,1,7.94-12.34H467.81a8.73,8.73,0,0,1,7.94,12.34Z" transform="translate(-341.83 -480.49)"/><g class="cls-5"><path class="cls-2" d="M397.36,523.39l-18,31.83L361,523.39h36.37m1.16-.68H359.81l19.56,33.88,19.15-33.88Z" transform="translate(-341.83 -480.49)"/><path class="cls-3" d="M457.38,523.39l-41.22,71.42a8.06,8.06,0,0,1-14,0l-4.73-8.17,35.76-63.25h24.14m1.18-.68H432.85L396.7,586.64l4.92,8.51a8.74,8.74,0,0,0,15.13,0l41.81-72.44Z" transform="translate(-341.83 -480.49)"/><path class="cls-4" d="M467.81,481.17a8,8,0,0,1,7.5,11H343.06a8.05,8.05,0,0,1,7.5-11H467.81m0-.68H350.56a8.73,8.73,0,0,0-7.94,12.34H475.75a8.73,8.73,0,0,0-7.94-12.34Z" transform="translate(-341.83 -480.49)"/></g><path class="cls-6" d="M346.47,499.62l9.42,16.3h54.27l-26.85,47.5c6.53,11.31,4.7,8.13,9.45,16.39l36.12-63.89h33.6c8.63-14.92.87-1.52,9.42-16.3Z" transform="translate(-341.83 -480.49)"/><path class="cls-7" d="M470.72,500.3l-4.09,7.08c-.2.36-.4.7-4.54,7.86H428.48l-.19.34-35.53,62.86-1.18-2.05c-2.22-3.86-2.22-3.86-5.55-9.62l-1.94-3.36,26.66-47.16.58-1H356.28c-4.17-7.2-4.34-7.51-4.51-7.81l-4.12-7.13H470.72m1.18-.68H346.47l9.42,16.3h54.27l-26.85,47.5c6.53,11.31,4.7,8.13,9.45,16.39l36.12-63.89h33.6c8.63-14.92.87-1.52,9.42-16.3Z" transform="translate(-341.83 -480.49)"/><path class="cls-8" d="M493.82,530.93v26.41h-8V530.93h-9.39v-6.86h26.83v6.86Z" transform="translate(-341.83 -480.49)"/><path class="cls-9" d="M501.62,537.13a15.37,15.37,0,0,1,10.44-3.94c7.85,0,10.76,3.85,10.76,12.36v11.79h-7.05v-2.49h-.14c-1.18,1.93-3.85,3.06-6.63,3.06-3.71,0-8.5-1.84-8.5-7.34,0-6.76,8.22-7.89,15-7.89v-.38c0-2.3-1.84-3.38-4.23-3.38a8.82,8.82,0,0,0-5.78,2.4Zm14.15,10h-1c-3.38,0-7.19.43-7.19,3.2,0,1.79,1.79,2.4,3.34,2.4,3.1,0,4.84-1.88,4.84-4.8Z" transform="translate(-341.83 -480.49)"/><path class="cls-10" d="M543.5,558c-3.1,0-6.16-1.36-7.66-3.71h-.09v3.05h-7.1V521.81h7.71v14.62h.09a9.24,9.24,0,0,1,7.14-3.15c6.82,0,11,5.73,11,12.27S550.55,558,543.5,558Zm-1.83-18.42a6,6,0,0,0,0,12c3.66,0,5.54-3,5.54-6.06S545.33,539.58,541.67,539.58Z" transform="translate(-341.83 -480.49)"/><path class="cls-11" d="M577.53,532.72a8.06,8.06,0,0,0-5.92-2.87c-2.07,0-4.66.7-4.66,3.34,0,2.2,2,2.91,5.13,3.9,4.51,1.45,10.34,3.38,10.34,10,0,7.66-6.16,11.09-12.74,11.09-4.75,0-9.54-1.74-12.45-4.8l5.26-5.35a9.85,9.85,0,0,0,7.19,3.52c2.44,0,4.61-.94,4.61-3.62s-2.54-3.33-6.91-4.74-8.51-3.53-8.51-9.54c0-7.38,6.67-10.44,12.88-10.44a16.62,16.62,0,0,1,10.9,4.09Z" transform="translate(-341.83 -480.49)"/><path class="cls-12" d="M610.47,547.75h-17c.23,2.59,2.82,4.42,5.59,4.42a6.12,6.12,0,0,0,5.17-2.44l5.36,3.38c-2.21,3.2-5.88,5-10.62,5-7,0-12.88-4.46-12.88-12.36,0-7.66,5.55-12.54,12.64-12.54,6.91,0,11.75,4.74,11.75,12.73C610.52,546.53,610.52,547.19,610.47,547.75ZM603.42,543a4.25,4.25,0,0,0-4.6-4.46,5.09,5.09,0,0,0-5.31,4.46Z" transform="translate(-341.83 -480.49)"/><path class="cls-13" d="M638.49,547.75h-17c.23,2.59,2.82,4.42,5.59,4.42a6.1,6.1,0,0,0,5.17-2.44l5.36,3.38c-2.21,3.2-5.88,5-10.62,5-7,0-12.88-4.46-12.88-12.36,0-7.66,5.55-12.54,12.64-12.54,6.91,0,11.75,4.74,11.75,12.73C638.53,546.53,638.53,547.19,638.49,547.75Zm-7-4.79a4.26,4.26,0,0,0-4.61-4.46,5.09,5.09,0,0,0-5.31,4.46Z" transform="translate(-341.83 -480.49)"/><path class="cls-14" d="M658.51,540.24a7.53,7.53,0,0,0-2-.24,5.28,5.28,0,0,0-5.49,5.31v12h-7.71v-23.4h7.42v3.38h.1a7.06,7.06,0,0,1,6.34-4,5.54,5.54,0,0,1,1.65.19Z" transform="translate(-341.83 -480.49)"/><path class="cls-15" d="M674.11,557.34V524.07h8.09v33.27Z" transform="translate(-341.83 -480.49)"/><path class="cls-16" d="M704,557.34V544.56c0-2.59-.7-4.94-3.47-4.94s-4.14,2.35-4.14,5v12.69h-7.75v-23.4h7.47v3.24h.09a8,8,0,0,1,7-3.9c6.3,0,8.56,4.89,8.56,9.59v14.47Z" transform="translate(-341.83 -480.49)"/><path class="cls-17" d="M733.71,541.5a5.4,5.4,0,0,0-4.09-1.88c-3.24,0-5.41,2.78-5.41,6s2.12,6,5.5,6a5.62,5.62,0,0,0,4.19-1.74l4.27,5.22c-1.93,1.88-5.22,3-8.65,3-7.37,0-13.11-4.7-13.11-12.45s5.78-12.45,13.07-12.45c3.33,0,6.86,1.26,8.69,3.14Z" transform="translate(-341.83 -480.49)"/></g></g></svg>