<?xml version="1.0" encoding="UTF-8"?>
<svg id="Layer_1" data-name="Layer 1" xmlns="http://www.w3.org/2000/svg" version="1.1" xmlns:xlink="http://www.w3.org/1999/xlink" viewBox="0 0 396.3 119">
  <defs>
    <style>
      .cls-1 {
        fill: url(#linear-gradient);
      }

      .cls-1, .cls-2, .cls-3, .cls-4, .cls-5, .cls-6, .cls-7 {
        stroke-width: 0px;
      }

      .cls-8, .cls-3 {
        isolation: isolate;
      }

      .cls-2 {
        fill: snow;
      }

      .cls-3 {
        fill: url(#linear-gradient-4);
      }

      .cls-3, .cls-9 {
        mix-blend-mode: screen;
      }

      .cls-4 {
        fill: url(#linear-gradient-2);
      }

      .cls-5 {
        fill: url(#linear-gradient-3);
      }

      .cls-6 {
        fill: #3857bf;
      }

      .cls-7 {
        fill: #fff;
      }
    </style>
    <linearGradient id="linear-gradient" x1="18" y1="1209.7" x2="56.7" y2="1209.7" gradientTransform="translate(-341.8 -1150.5)" gradientUnits="userSpaceOnUse">
      <stop offset="0" stop-color="#2b0b9b"/>
      <stop offset="1" stop-color="#4ccaf5"/>
    </linearGradient>
    <linearGradient id="linear-gradient-2" x1="396.7" y1="1231.1" x2="458.6" y2="1231.1" gradientTransform="translate(-341.8 -1150.5)" gradientUnits="userSpaceOnUse">
      <stop offset="0" stop-color="#2b0b9b"/>
      <stop offset="1" stop-color="#4ccaf5"/>
    </linearGradient>
    <linearGradient id="linear-gradient-3" x1="341.8" y1="1156.6" x2="476.5" y2="1156.6" gradientTransform="translate(-341.8 -1150.5)" gradientUnits="userSpaceOnUse">
      <stop offset="0" stop-color="#2b0b9b"/>
      <stop offset="1" stop-color="#4ccaf5"/>
    </linearGradient>
    <linearGradient id="linear-gradient-4" x1="346.4" y1="1209.7" x2="471.9" y2="1209.7" gradientTransform="translate(-341.8 -1150.5)" gradientUnits="userSpaceOnUse">
      <stop offset="0" stop-color="#2b0b9b"/>
      <stop offset="1" stop-color="#4ccaf5"/>
    </linearGradient>
  </defs>
  <g class="cls-8">
    <g id="Layer_1-2" data-name="Layer 1-2">
      <polygon class="cls-6" points="56.7 42.2 37.5 76.1 18 42.2 56.7 42.2"/>
      <path class="cls-6" d="M91,42.2h25.7l-41.8,72.4c-2.4,4.2-7.8,5.6-11.9,3.2-1.3-.8-2.4-1.9-3.2-3.2l-4.9-8.5,36.2-63.9h0Z"/>
      <path class="cls-6" d="M133.9,12.3H.8C-1.2,8,.7,2.8,5.1.8c1.2-.5,2.4-.8,3.6-.8h117.2c4.8,0,8.7,3.9,8.7,8.7s-.3,2.5-.8,3.6h.1Z"/>
      <g class="cls-9">
        <path class="cls-1" d="M55.5,42.9l-18,31.8-18.4-31.8h36.4M56.7,42.2H18l19.6,33.9,19.1-33.9h0Z"/>
        <path class="cls-4" d="M115.6,42.9l-41.2,71.4c-2.2,3.9-7.1,5.2-11,3-1.3-.7-2.3-1.8-3-3l-4.7-8.2,35.8-63.2h24.1M116.7,42.2h-25.7l-36.1,63.9,4.9,8.5c2.4,4.2,7.8,5.6,11.9,3.2,1.3-.8,2.4-1.9,3.2-3.2l41.8-72.4h0Z"/>
        <path class="cls-5" d="M126,.7c4.4,0,8,3.5,8.1,7.9,0,1.1-.2,2.1-.6,3.1H1.2C-.4,7.5,1.6,2.9,5.8,1.2c.9-.4,1.9-.6,3-.6h117.2M126,0H8.7C3.9,0,0,3.9,0,8.7s.3,2.5.8,3.6h133.1c2-4.4,0-9.6-4.3-11.6-1.1-.4-2.4-.7-3.6-.7Z"/>
      </g>
      <path class="cls-6" d="M4.6,19.1l9.4,16.3h54.3l-26.9,47.5c6.5,11.3,4.7,8.1,9.5,16.4l36.1-63.9h33.6c8.6-14.9.9-1.5,9.4-16.3,0,0-125.4,0-125.4,0Z"/>
      <path class="cls-3" d="M128.9,19.8l-4.1,7.1c-.2.4-.4.7-4.5,7.9h-33.6l-.2.3-35.5,62.9-1.2-2c-1.5-2.6-3.3-5.8-5.5-9.6l-1.9-3.4,26.7-47.2.6-1H14.5c-4.2-7.2-4.3-7.5-4.5-7.8l-4.1-7.1h123.1M130.1,19.1H4.6l9.4,16.3h54.3l-26.9,47.5c6.5,11.3,4.7,8.1,9.5,16.4l36.1-63.9h33.6c8.6-14.9.9-1.5,9.4-16.3h.1Z"/>
      <path class="cls-7" d="M152,50.4v26.4h-8v-26.4h-9.4v-6.9h26.8v6.9h-9.4Z"/>
      <path class="cls-7" d="M159.8,56.6c2.9-2.6,6.6-4,10.4-3.9,7.8,0,10.8,3.8,10.8,12.4v11.8h-7v-2.5h-.1c-1.2,1.9-3.9,3.1-6.6,3.1s-8.5-1.8-8.5-7.3,8.2-7.9,15-7.9v-.4c0-2.3-1.8-3.4-4.2-3.4s-4.2.9-5.8,2.4l-3.9-4.2h0ZM173.9,66.6h-1c-3.4,0-7.2.4-7.2,3.2s1.8,2.4,3.3,2.4c3.1,0,4.8-1.9,4.8-4.8v-.8h0Z"/>
      <path class="cls-2" d="M201.7,77.5c-3.1,0-6.2-1.4-7.7-3.7h0v3h-7.1v-35.5h7.7v14.6h0c1.8-2.1,4.4-3.2,7.1-3.2,6.8,0,11,5.7,11,12.3s-4,12.5-11.1,12.5h.1ZM199.8,59.1c-3.3,0-6,2.7-6,6s2.7,6,6,6,5.5-3,5.5-6.1-1.9-5.9-5.5-5.9Z"/>
      <path class="cls-7" d="M235.7,52.2c-1.5-1.8-3.6-2.8-5.9-2.9-2.1,0-4.7.7-4.7,3.3s2,2.9,5.1,3.9c4.5,1.5,10.3,3.4,10.3,10s-6.2,11.1-12.7,11.1-9.5-1.7-12.5-4.8l5.3-5.3c1.8,2.1,4.4,3.4,7.2,3.5,2.4,0,4.6-.9,4.6-3.6s-2.5-3.3-6.9-4.7-8.5-3.5-8.5-9.5,6.7-10.4,12.9-10.4,7.9,1.5,10.9,4.1l-5.1,5.4h0Z"/>
      <path class="cls-7" d="M268.6,67.3h-17c.2,2.6,2.8,4.4,5.6,4.4s4-.8,5.2-2.4l5.4,3.4c-2.2,3.2-5.9,5-10.6,5-7,0-12.9-4.5-12.9-12.4s5.5-12.5,12.6-12.5,11.8,4.7,11.8,12.7v1.8h-.1ZM261.6,62.5c.1-2.3-1.7-4.3-4-4.5h-.6c-2.7,0-5,1.8-5.3,4.5h9.9Z"/>
      <path class="cls-7" d="M296.7,67.3h-17c.2,2.6,2.8,4.4,5.6,4.4s4-.8,5.2-2.4l5.4,3.4c-2.2,3.2-5.9,5-10.6,5-7,0-12.9-4.5-12.9-12.4s5.5-12.5,12.6-12.5,11.8,4.7,11.8,12.7v1.8h-.1ZM289.7,62.5c.1-2.3-1.7-4.4-4-4.5h-.6c-2.7,0-5,1.8-5.3,4.5h9.9Z"/>
      <path class="cls-7" d="M316.7,59.8c-.7-.2-1.3-.2-2-.2-2.9,0-5.4,2.2-5.5,5.1v12.2h-7.7v-23.4h7.4v3.4h0c1.2-2.4,3.6-4,6.3-4s1.1,0,1.7.2l-.3,6.8h.1Z"/>
      <path class="cls-7" d="M332.3,76.9v-33.3h8.1v33.3h-8.1Z"/>
      <path class="cls-7" d="M362.2,76.9v-12.8c0-2.6-.7-4.9-3.5-4.9s-4.1,2.3-4.1,5v12.7h-7.8v-23.4h7.5v3.2h0c1.5-2.5,4.1-3.9,7-3.9,6.3,0,8.6,4.9,8.6,9.6v14.5h-7.8,0Z"/>
      <path class="cls-7" d="M391.9,61c-1-1.2-2.5-1.9-4.1-1.9-3.2,0-5.4,2.8-5.4,6s2.1,6,5.5,6,3.1-.6,4.2-1.7l4.3,5.2c-1.9,1.9-5.2,3-8.7,3-7.4,0-13.1-4.7-13.1-12.5s5.8-12.5,13.1-12.5,6.9,1.3,8.7,3.1l-4.5,5.2h0Z"/>
    </g>
  </g>
</svg>