<svg id="Layer_1" data-name="Layer 1" xmlns="http://www.w3.org/2000/svg" viewBox="0 0 284.01 96.45"><defs><style>.cls-1{fill:#16697a;}.cls-2{fill:#db6400;}.cls-3{fill:#ffbc97;}</style></defs><path class="cls-1" d="M241.89,339.25H225V328h46v11.27h-16.9v44.28H241.89Z" transform="translate(-224.99 -287.88)"/><path class="cls-1" d="M268.24,371.31v-.16c0-9.28,7.06-13.57,17.14-13.57a30.22,30.22,0,0,1,10.39,1.75v-.72c0-5-3.09-7.77-9.12-7.77a31.26,31.26,0,0,0-11.75,2.3l-3-9.21a37.55,37.55,0,0,1,16.5-3.41c6.59,0,11.35,1.75,14.37,4.76,3.17,3.18,4.6,7.86,4.6,13.57v24.68H295.69v-4.6c-2.93,3.25-7,5.39-12.85,5.39C274.82,384.32,268.24,379.72,268.24,371.31Zm27.69-2.78v-2.14a18.73,18.73,0,0,0-7.7-1.59c-5.15,0-8.33,2.07-8.33,5.88v.15c0,3.26,2.7,5.16,6.59,5.16C292.12,376,295.93,372.9,295.93,368.53Z" transform="translate(-224.99 -287.88)"/><path class="cls-1" d="M329.82,378v5.55H317.75V325.6h12.07v21.51c2.93-4,7-6.91,13.25-6.91,9.92,0,19.36,7.78,19.36,22v.16c0,14.21-9.28,22-19.36,22A16.32,16.32,0,0,1,329.82,378Zm20.55-15.64v-.16c0-7.06-4.76-11.74-10.4-11.74s-10.31,4.68-10.31,11.74v.16c0,7.07,4.68,11.75,10.31,11.75S350.37,369.49,350.37,362.34Z" transform="translate(-224.99 -287.88)"/><path class="cls-1" d="M372.59,328h12.22v44.44H412.5v11.11H372.59Z" transform="translate(-224.99 -287.88)"/><path class="cls-1" d="M447,341v23.72c0,5.72-2.93,8.65-7.54,8.65s-7.29-2.93-7.29-8.65V341H420.12v27.54c0,9.75,5.32,15.79,14.44,15.79,6.11,0,9.69-3.26,12.46-6.83v6h12.06V341Z" transform="translate(-224.99 -287.88)"/><path class="cls-2" d="M495.75,341l-5.62,8.73q3.25,4.09,6.38,8.44L508.37,341Zm-16.52,23.83-12.92,18.7h12.61l6.7-10.36C483.81,370.68,481.68,367.86,479.23,364.83Zm3.24-19.64,5.26,8.27.69-1.07q3.19,4,6.28,8.38l-.7,1,15,21.74H496.06l0-.06,0-.06-6.27-9.68s0,0,0,0l-2.22-3.43-.11.18c-1.83-2.49-3.95-5.26-6.37-8.21l.21-.3L469.6,345l-2.74-4h11.87Z" transform="translate(-224.99 -287.88)"/><path class="cls-3" d="M456.7,341h2.38v2.19C458.3,342.46,457.51,341.73,456.7,341Z" transform="translate(-224.99 -287.88)"/><path class="cls-2" d="M494.7,360.77q-3.09-4.33-6.28-8.38-2.94-3.74-5.95-7.2-1.86-2.15-3.74-4.19c-93.54-101.66-231.46-26.53-235.33-24.39,128-62.05,206.7,7.7,237.61,45.64,2.42,2.95,4.54,5.72,6.37,8.21.84,1.14,1.61,2.23,2.33,3.25,0,0,0,0,0,0l6.27,9.68,0,.06,0,.06H509A242.8,242.8,0,0,0,494.7,360.77Z" transform="translate(-224.99 -287.88)"/></svg>